<?xml version="1.0" encoding="iso-8859-1"?>
<!-- Generator: Adobe Illustrator 19.0.0, SVG Export Plug-In . SVG Version: 6.00 Build 0)  -->
<svg version="1.1" id="Layer_1" xmlns="http://www.w3.org/2000/svg" xmlns:xlink="http://www.w3.org/1999/xlink" x="0px" y="0px"
	 viewBox="0 0 512 512" style="enable-background:new 0 0 512 512;" xml:space="preserve">
<path style="fill:#736056;" d="M328.348,378.435H50.088c-27.619,0-50.087-22.468-50.087-50.087V50.087
	C0.001,22.468,22.469,0,50.088,0h278.261c27.619,0,50.087,22.468,50.087,50.087v278.261
	C378.435,355.967,355.969,378.435,328.348,378.435z"/>
<path style="fill:#665247;" d="M328.348,0h-139.13v378.435h139.13c27.619,0,50.087-22.468,50.087-50.087V50.087
	C378.435,22.468,355.969,0,328.348,0z"/>
<path style="fill:#E6563A;" d="M111.305,211.478V33.391H50.088c-9.206,0-16.696,7.49-16.696,16.696v161.391H111.305z"/>
<path style="fill:#E4EBF0;" d="M144.696,111.304h50.087c27.619,0,50.087,22.468,50.087,50.087v50.087h100.174V50.087
	c0-9.206-7.49-16.696-16.696-16.696H144.696V111.304z"/>
<path style="fill:#88CC2A;" d="M211.479,161.391c0-9.206-7.49-16.696-16.696-16.696h-50.087v66.783h66.783V161.391z"/>
<path style="fill:#FFC033;" d="M178.088,244.87H33.392v83.478c0,9.206,7.49,16.696,16.696,16.696h128V244.87z"/>
<path style="fill:#7FB335;" d="M211.479,161.391c0-9.206-7.49-16.696-16.696-16.696h-5.565v66.783h22.261V161.391z"/>
<path style="fill:#736056;" d="M428.522,512c-9.217,0-16.696-7.473-16.696-16.696V16.696C411.827,7.473,419.305,0,428.522,0
	s16.696,7.473,16.696,16.696v478.609C445.218,504.527,437.74,512,428.522,512z"/>
<path style="fill:#665247;" d="M495.284,512c-8.685,0-16.022-6.728-16.63-15.533L445.263,17.859
	c-0.641-9.202,6.293-17.174,15.489-17.821c9.055-0.614,17.184,6.293,17.815,15.495l33.391,478.609
	c0.641,9.202-6.293,17.174-15.489,17.821C496.076,511.989,495.675,512,495.284,512z"/>
<path style="fill:#736056;" d="M244.87,211.478v-50.087c0-27.619-22.468-50.087-50.087-50.087h-50.087V22.261h-33.391v189.217
	H22.262v33.391h155.826v111.304h33.391V244.87h144.696v-33.391H244.87z M211.479,211.478h-66.783v-66.783h50.087
	c9.206,0,16.696,7.49,16.696,16.696V211.478z"/>
<path style="fill:#665247;" d="M244.87,161.391c0-27.619-22.468-50.087-50.087-50.087h-5.565v33.391h5.565
	c9.206,0,16.696,7.49,16.696,16.696v50.087h-22.261v144.696h22.261V244.87h144.696v-33.391H244.87V161.391z"/>
<path style="fill:#CDD9E4;" d="M194.783,111.304c27.619,0,50.087,22.468,50.087,50.087v50.087h100.174V50.087
	c0-9.206-7.49-16.696-16.696-16.696h-139.13v77.913H194.783z"/>
<path style="fill:#D9472B;" d="M211.479,244.87v100.174h116.87c9.206,0,16.696-7.49,16.696-16.696V244.87H211.479z"/>
<g>
</g>
<g>
</g>
<g>
</g>
<g>
</g>
<g>
</g>
<g>
</g>
<g>
</g>
<g>
</g>
<g>
</g>
<g>
</g>
<g>
</g>
<g>
</g>
<g>
</g>
<g>
</g>
<g>
</g>
</svg>
