<?xml version="1.0" encoding="iso-8859-1"?>
<!-- Generator: Adobe Illustrator 19.0.0, SVG Export Plug-In . SVG Version: 6.00 Build 0)  -->
<svg version="1.1" id="Layer_1" xmlns="http://www.w3.org/2000/svg" xmlns:xlink="http://www.w3.org/1999/xlink" x="0px" y="0px"
	 viewBox="0 0 512 512" style="enable-background:new 0 0 512 512;" xml:space="preserve">
<path style="fill:#FF9F19;" d="M283.826,506.435H150.261c-27.619,0-50.087-22.468-50.087-50.087v-33.391
	c0-9.223,7.479-16.696,16.696-16.696h200.348c9.217,0,16.696,7.473,16.696,16.696v33.391
	C333.913,483.967,311.445,506.435,283.826,506.435z"/>
<path style="fill:#F28618;" d="M317.217,406.261H217.043v100.174h66.783c27.619,0,50.087-22.468,50.087-50.087v-33.391
	C333.913,413.734,326.435,406.261,317.217,406.261z"/>
<g>
	<path style="fill:#665247;" d="M495.304,72.348H283.826c-9.217,0-16.696-7.473-16.696-16.696s7.479-16.696,16.696-16.696h211.478
		c9.217,0,16.696,7.473,16.696,16.696S504.521,72.348,495.304,72.348z"/>
	<path style="fill:#665247;" d="M495.304,139.13H283.826c-9.217,0-16.696-7.473-16.696-16.696s7.479-16.696,16.696-16.696h211.478
		c9.217,0,16.696,7.473,16.696,16.696S504.521,139.13,495.304,139.13z"/>
</g>
<g>
	<path style="fill:#736056;" d="M83.478,72.348H16.696C7.479,72.348,0,64.875,0,55.652s7.479-16.696,16.696-16.696h66.783
		c9.217,0,16.696,7.473,16.696,16.696S92.695,72.348,83.478,72.348z"/>
	<path style="fill:#736056;" d="M83.478,139.13H16.696C7.479,139.13,0,131.657,0,122.435s7.479-16.696,16.696-16.696h66.783
		c9.217,0,16.696,7.473,16.696,16.696S92.695,139.13,83.478,139.13z"/>
</g>
<path style="fill:#F9A926;" d="M144.696,239.304H66.783V44.522c0-21.515,17.441-38.957,38.957-38.957l0,0
	c21.515,0,38.957,17.441,38.957,38.957V239.304z"/>
<path style="fill:#FFC033;" d="M222.609,239.304h-77.913V44.522c0-21.515,17.441-38.957,38.957-38.957l0,0
	c21.515,0,38.957,17.441,38.957,38.957V239.304z"/>
<path style="fill:#F9A926;" d="M300.522,239.304h-77.913V44.522c0-21.515,17.441-38.957,38.957-38.957l0,0
	c21.515,0,38.957,17.441,38.957,38.957V239.304z"/>
<path style="fill:#736056;" d="M283.826,439.652H150.261C67.403,439.652,0,372.244,0,289.391v-66.783
	c0-9.223,7.479-16.696,16.696-16.696h400.696c9.217,0,16.696,7.473,16.696,16.696v66.783
	C434.087,372.244,366.684,439.652,283.826,439.652z"/>
<path style="fill:#665247;" d="M417.391,205.913H217.043v233.739h66.783c82.858,0,150.261-67.408,150.261-150.261v-66.783
	C434.087,213.386,426.608,205.913,417.391,205.913z"/>
<path style="fill:#997F72;" d="M150.261,372.87c-46.032,0-83.478-37.446-83.478-83.478c0-9.223,7.479-16.696,16.696-16.696
	s16.696,7.473,16.696,16.696c0,27.619,22.468,50.087,50.087,50.087c9.217,0,16.696,7.473,16.696,16.696
	S159.478,372.87,150.261,372.87z"/>
<g>
</g>
<g>
</g>
<g>
</g>
<g>
</g>
<g>
</g>
<g>
</g>
<g>
</g>
<g>
</g>
<g>
</g>
<g>
</g>
<g>
</g>
<g>
</g>
<g>
</g>
<g>
</g>
<g>
</g>
</svg>
